<?xml version="1.0" standalone="no"?>
<!DOCTYPE svg PUBLIC "-//W3C//DTD SVG 20010904//EN"
 "http://www.w3.org/TR/2001/REC-SVG-20010904/DTD/svg10.dtd">
<svg version="1.0" xmlns="http://www.w3.org/2000/svg"
 width="512.000000pt" height="512.000000pt" viewBox="0 0 512.000000 512.000000"
 preserveAspectRatio="xMidYMid meet">

<g transform="translate(0.000000,512.000000) scale(0.100000,-0.100000)"
fill="#000000" stroke="none">
<path d="M2470 4604 c-98 -38 -731 -268 -935 -339 -452 -159 -947 -337 -988
-356 -15 -7 -26 -17 -24 -23 3 -8 140 -55 377 -128 181 -56 575 -155 687 -173
24 -4 45 -10 47 -14 9 -14 -33 -181 -65 -257 -18 -42 -45 -92 -62 -111 -28
-32 -28 -33 -6 -24 59 23 133 61 119 61 -33 1 24 29 91 44 204 47 361 -20 467
-199 36 -60 50 -101 31 -90 -9 6 -11 3 -6 -8 3 -10 2 -17 -3 -17 -6 0 -10 10
-10 23 0 26 -28 70 -40 62 -4 -3 -13 2 -20 11 -7 8 -19 13 -26 10 -19 -7 -25
5 -12 23 8 10 5 9 -9 -3 -12 -10 -35 -19 -50 -18 l-27 0 28 -25 c16 -13 27
-26 25 -28 -2 -2 -21 11 -41 28 l-38 32 31 2 c36 3 55 16 62 43 9 33 -15 42
-57 19 -21 -11 -41 -17 -44 -14 -7 7 19 26 28 20 3 -2 12 6 19 18 10 16 10 19
1 10 -7 -6 -19 -9 -28 -6 -9 4 -13 2 -9 -4 8 -13 -20 -26 -35 -16 -7 4 -8 1
-3 -7 9 -15 -8 -12 -67 14 -56 24 -46 10 13 -20 38 -19 54 -23 59 -14 5 8 10
9 14 2 3 -6 1 -12 -5 -14 -7 -2 5 -4 25 -5 20 -1 34 2 32 5 -2 4 2 12 9 19 10
10 14 9 19 -2 7 -19 -20 -38 -44 -32 -11 3 -22 1 -25 -4 -3 -4 -20 0 -38 10
-56 31 -160 69 -224 81 -88 18 -166 2 -280 -56 -104 -53 -157 -99 -133 -114 8
-5 24 -9 35 -9 18 1 17 2 -3 7 -19 6 -12 11 40 30 81 30 111 45 120 57 4 5 44
11 90 13 65 3 80 1 71 -8 -6 -7 -44 -15 -83 -18 -66 -4 -70 -6 -55 -22 8 -9
15 -22 15 -28 0 -7 12 -10 33 -7 30 5 30 5 7 -5 -18 -7 -30 -23 -39 -55 -19
-64 -64 -155 -95 -192 -42 -50 -98 -62 -171 -38 -11 4 -2 -4 20 -19 25 -16 34
-25 23 -26 -10 0 -18 -4 -18 -9 0 -11 77 3 122 22 45 19 101 86 128 153 33 81
35 59 3 -26 -23 -59 -35 -77 -65 -96 -49 -31 -63 -54 -98 -160 -27 -82 -29
-98 -25 -199 6 -145 8 -161 20 -172 8 -7 12 29 14 115 2 116 5 130 31 183 16
32 33 60 38 63 4 2 -3 -37 -16 -87 -19 -74 -22 -107 -17 -167 6 -85 25 -189
34 -194 3 -2 4 40 3 95 -2 59 0 99 6 99 5 0 40 -55 77 -122 37 -68 87 -151
111 -184 43 -60 43 -62 21 -68 -30 -7 -137 -104 -181 -165 -20 -27 -54 -86
-77 -132 -23 -46 -48 -91 -55 -100 -8 -9 -14 -20 -12 -25 1 -5 -20 -42 -46
-82 -58 -89 -132 -244 -177 -372 -32 -91 -33 -102 -37 -276 l-4 -181 27 -21
28 -22 1428 0 1429 0 21 21 c20 20 20 29 16 197 -4 188 -6 201 -38 290 -30 81
-163 351 -190 386 -13 17 -24 36 -25 43 -1 7 -38 74 -81 149 -88 155 -171 253
-234 278 l-41 17 44 52 c25 29 75 102 113 162 37 61 75 118 84 129 15 17 16
17 22 -10 4 -16 7 -60 8 -99 2 -59 4 -66 13 -45 15 38 15 227 -1 288 -7 29
-11 56 -7 59 10 10 47 -85 58 -150 18 -110 18 -112 29 -96 15 25 11 216 -6
249 -9 17 -20 42 -26 57 l-10 28 28 -27 c16 -16 34 -28 41 -28 21 0 13 68 -13
121 -14 27 -23 54 -19 60 4 6 27 8 61 3 41 -5 54 -4 49 5 -4 6 -19 11 -34 11
l-27 0 33 20 c42 26 41 33 -3 14 -46 -19 -105 -18 -134 3 -26 18 -93 152 -113
226 -17 64 -9 69 82 57 119 -15 130 -14 130 14 0 35 -36 70 -100 96 -81 32
-97 45 -124 98 -23 45 -86 233 -100 298 l-7 32 78 17 c43 9 173 44 288 77 116
34 238 68 272 78 l62 17 3 -111 3 -111 -33 -45 c-67 -92 -77 -124 -77 -245 0
-77 6 -131 19 -178 16 -59 18 -91 13 -255 -3 -103 -10 -225 -16 -272 -9 -81
-27 -432 -33 -665 l-3 -110 45 -16 c25 -8 58 -22 73 -29 24 -12 30 -12 38 1 6
10 9 10 9 2 0 -8 13 -13 30 -13 17 0 30 4 30 10 0 5 6 7 14 4 17 -7 82 25 126
62 l32 28 -6 285 c-8 322 -19 480 -41 561 -14 52 -14 58 7 108 18 44 20 55 8
62 -11 7 -10 21 6 87 14 58 19 113 19 213 -1 129 -2 138 -31 200 -17 36 -55
93 -83 128 -51 60 -53 63 -47 110 6 43 2 68 -30 179 -5 19 -1 23 38 33 111 29
287 80 321 95 49 20 38 38 -36 56 -29 6 -124 36 -211 65 -88 30 -161 52 -163
50 -5 -5 24 -319 37 -402 6 -38 14 -97 18 -130 7 -54 13 -68 52 -111 75 -83
94 -132 98 -253 3 -58 -1 -135 -8 -174 l-12 -69 -90 183 c-49 101 -92 196 -95
212 -3 15 -11 28 -19 28 -7 0 -16 5 -20 12 -5 7 -2 9 8 6 11 -5 14 -1 11 15
-2 13 4 31 14 42 30 32 36 55 34 140 -3 106 -47 498 -66 577 -8 35 -15 88 -15
118 0 66 -17 104 -48 108 -61 9 -67 -48 -17 -147 29 -57 46 -121 31 -121 -2 0
-62 21 -132 46 -71 25 -253 88 -404 139 -151 51 -446 152 -656 224 -210 72
-387 131 -395 131 -8 -1 -43 -12 -79 -26z m465 -153 c176 -60 361 -123 410
-140 50 -18 249 -85 443 -149 230 -76 352 -121 352 -130 0 -10 -9 -12 -32 -7
-43 10 -393 123 -743 242 -154 52 -350 117 -435 145 -85 27 -204 68 -263 90
l-109 41 -36 -18 c-33 -15 -376 -144 -442 -165 -14 -5 -77 -27 -140 -50 -235
-85 -762 -270 -982 -344 -173 -59 -237 -76 -270 -74 -41 3 -35 6 92 50 212 73
554 193 680 238 63 23 176 63 250 90 343 122 426 152 580 210 273 102 260 98
294 89 17 -5 175 -58 351 -118z m1355 -457 c0 -2 -11 -4 -25 -4 -14 0 -25 4
-25 9 0 4 11 6 25 3 14 -2 25 -6 25 -8z m-2400 -71 c-1 -31 -145 -430 -197
-541 -15 -35 -51 -77 -59 -70 -5 6 26 96 109 313 91 238 107 278 119 292 12
14 28 17 28 6z m2281 -607 c5 3 6 11 3 17 -5 8 -4 9 4 2 7 -6 18 -48 26 -93
16 -89 44 -157 86 -206 35 -41 80 -108 80 -120 0 -20 -53 41 -91 104 -46 77
-50 73 -11 -13 34 -73 89 -140 109 -133 9 4 19 -7 29 -31 15 -34 14 -38 -4
-62 -24 -32 -50 -30 -100 5 -35 25 -33 26 13 8 18 -7 18 -6 6 9 -12 15 -11 17
9 17 18 0 15 5 -21 33 -53 40 -132 184 -154 279 -16 73 -19 156 -8 209 l8 34
3 -33 c2 -18 8 -30 13 -26z m-678 -55 c31 -19 54 -38 52 -42 -3 -3 -24 -4 -48
-2 -72 8 -211 -36 -304 -98 -18 -11 -33 -19 -33 -16 0 3 16 15 35 27 32 20 51
58 23 47 -8 -3 -14 5 -14 19 -2 22 2 26 22 23 4 0 10 5 14 11 4 7 23 16 41 20
31 7 32 8 7 9 -84 3 -200 -68 -300 -182 -40 -47 -74 -81 -76 -76 -7 19 38 98
88 152 108 119 176 148 331 144 100 -2 108 -4 162 -36z m-1204 -143 c13 -10
18 -18 12 -18 -7 0 -10 -4 -6 -10 3 -5 13 -7 23 -4 14 5 14 4 2 -4 -12 -9 -11
-14 5 -33 l20 -23 -28 18 c-28 17 -29 17 -22 -3 5 -16 2 -21 -13 -21 -26 0
-39 17 -51 65 -5 22 -13 51 -17 64 l-7 23 29 -18 c16 -10 40 -26 53 -36z m594
1 c-10 -18 -50 -66 -90 -108 -66 -69 -71 -73 -63 -43 11 42 57 99 109 137 22
17 41 33 41 38 0 4 5 7 11 7 5 0 2 -14 -8 -31z m-765 -61 c-2 -6 -10 -14 -16
-16 -7 -2 -10 2 -6 12 7 18 28 22 22 4z m-106 -90 c92 -98 107 -128 62 -128
-23 0 -25 3 -20 25 4 14 2 25 -4 25 -5 0 -10 -7 -10 -15 0 -9 -6 -12 -15 -9
-26 10 -24 -59 3 -89 23 -26 112 -70 112 -56 0 13 47 4 67 -12 18 -15 -2 -70
-36 -101 -40 -36 -127 -54 -188 -39 -120 31 -203 140 -203 268 0 47 31 137 58
168 21 25 63 55 77 55 5 0 49 -42 97 -92z m1295 39 c35 -56 53 -112 53 -168 0
-99 -58 -206 -135 -251 -69 -39 -190 -26 -253 27 -34 28 -67 97 -58 120 5 14
9 13 35 -6 58 -43 145 -9 178 68 10 24 21 43 26 43 12 0 -21 58 -43 73 -18 13
-18 15 25 64 48 55 96 83 127 75 11 -2 31 -23 45 -45z m-1130 -9 c0 -9 -6 -14
-13 -11 -7 2 -17 -5 -23 -16 -16 -29 -13 -36 7 -18 27 25 62 11 62 -23 0 -15
11 -67 25 -114 14 -47 25 -90 25 -94 -1 -4 -16 26 -35 66 -18 39 -62 107 -96
150 -34 42 -52 67 -39 55 23 -21 25 -21 52 -5 35 20 31 38 -8 35 -21 -2 -25 0
-14 7 8 5 18 6 22 4 4 -3 8 1 8 8 0 7 6 4 14 -7 7 -11 13 -27 13 -37z m843
-41 c0 -2 -10 -12 -22 -23 l-23 -19 19 23 c18 21 26 27 26 19z m106 -72 c19
-29 19 -30 -18 -39 -23 -5 -28 -3 -34 18 -12 49 24 63 52 21z m-182 -25 c-28
-42 -41 -47 -29 -10 4 12 9 19 13 16 3 -3 11 3 19 14 26 37 23 20 -3 -20z
m166 -40 c0 -5 -5 -10 -11 -10 -5 0 -7 5 -4 10 3 6 8 10 11 10 2 0 4 -4 4 -10z
m1082 -41 c-2 -8 0 -11 4 -6 4 4 16 0 26 -10 11 -9 18 -11 18 -5 0 7 -4 12
-10 12 -5 0 -10 5 -10 12 0 6 12 1 28 -13 37 -33 95 -61 118 -57 29 5 42 -98
56 -457 17 -440 17 -409 -12 -434 -27 -22 -59 -36 -66 -28 -3 3 -6 205 -7 450
-1 245 -5 448 -9 452 -25 25 -28 -26 -28 -471 l0 -465 -32 3 -33 3 0 440 c0
242 -4 448 -9 458 -28 58 -34 -12 -42 -505 -6 -312 -9 -388 -20 -388 -33 0
-37 40 -31 290 9 306 25 664 32 708 4 20 11 32 18 29 7 -3 11 -11 9 -18z
m-1553 -15 c2 -2 -20 -5 -50 -6 l-54 -1 65 -6 c64 -6 64 -6 111 -65 67 -82
139 -227 139 -277 0 -33 3 -40 17 -37 10 2 24 16 32 32 12 25 11 33 -3 63 -21
45 -20 51 4 20 11 -14 20 -29 20 -34 0 -5 12 -20 26 -34 36 -33 85 -105 82
-121 -2 -7 7 -17 20 -23 33 -15 27 -25 -14 -25 -50 0 -164 -62 -229 -124 -71
-69 -129 -172 -182 -323 -24 -70 -45 -129 -47 -130 -2 -2 -22 50 -46 114 -60
168 -104 246 -180 322 -80 81 -193 145 -246 139 -23 -3 -34 0 -34 9 0 7 5 13
10 13 6 0 10 6 10 14 0 8 34 60 75 115 42 55 98 135 125 178 28 43 50 75 50
72 0 -14 -104 -205 -119 -217 -14 -12 -14 -15 8 -33 28 -23 35 -18 49 33 18
66 133 256 183 303 l46 43 64 -5 c35 -3 66 -7 68 -9z m-1055 -26 c-13 -41 -35
-90 -39 -86 -6 5 16 80 28 96 14 18 19 15 11 -10z m-86 -98 c-11 -18 -38 -36
-38 -25 0 5 42 45 47 45 2 0 -2 -9 -9 -20z m71 -160 c15 -135 47 -226 115
-332 48 -75 159 -192 201 -212 l36 -17 -38 -28 c-43 -32 -94 -112 -122 -192
-11 -30 -30 -119 -42 -199 -23 -137 -24 -142 -31 -95 -28 214 28 386 157 475
l45 31 -47 36 c-118 88 -215 205 -259 313 -55 136 -76 290 -42 311 7 4 13 7
14 6 1 -1 7 -45 13 -97z m2008 -183 c-7 -25 -20 -55 -29 -66 -9 -11 -14 -21
-12 -24 3 -3 1 -8 -4 -11 -17 -10 -7 28 22 91 17 34 31 61 33 60 1 -2 -3 -24
-10 -50z m-86 -164 c-11 -16 -52 -59 -92 -98 -41 -38 -71 -66 -67 -62 13 17
173 186 176 187 2 0 -6 -12 -17 -27z m-251 -223 c-8 -5 -19 -10 -25 -10 -5 0
-3 5 5 10 8 5 20 10 25 10 6 0 3 -5 -5 -10z m147 4 c-3 -3 -12 -4 -19 -1 -8 3
-5 6 6 6 11 1 17 -2 13 -5z m24 -136 c11 -21 11 -22 -4 -9 -10 7 -17 17 -17
22 0 15 9 10 21 -13z m66 -190 c-3 -8 -6 -5 -6 6 -1 11 2 17 5 13 3 -3 4 -12
1 -19z m20 -248 c-4 -114 -9 -160 -27 -215 -25 -78 -67 -166 -84 -177 -30 -20
-25 0 25 110 10 23 33 90 50 150 30 102 31 114 27 237 -4 93 -3 117 4 85 5
-25 7 -110 5 -190z m-1709 -255 c-6 -30 3 -32 20 -5 14 24 47 26 56 5 4 -13
10 -14 26 -5 13 7 20 7 20 0 0 -5 7 -10 15 -10 9 0 18 -7 21 -15 4 -10 11 -12
21 -6 18 9 63 2 63 -10 0 -5 7 -9 15 -9 8 0 15 -5 15 -11 0 -6 9 -9 20 -6 11
3 18 1 14 -4 -5 -8 12 -13 44 -12 6 1 12 -3 12 -9 0 -5 5 -6 10 -3 6 4 8 12 4
18 -3 7 1 4 10 -7 8 -10 22 -16 31 -13 10 4 15 0 16 -11 0 -9 3 -12 5 -6 5 12
54 7 54 -6 0 -4 7 -10 14 -13 10 -4 13 -1 10 7 -4 10 2 12 21 8 17 -3 24 -9
21 -19 -3 -8 -2 -12 3 -8 16 9 71 13 71 5 0 -5 16 -7 35 -6 19 2 35 0 35 -3 0
-8 47 -6 75 4 16 6 17 5 5 -4 -12 -9 -6 -11 25 -6 22 3 34 2 28 -1 -18 -8 -16
-25 2 -18 8 4 15 11 15 18 0 12 76 12 118 0 12 -3 22 -2 22 3 0 11 53 9 71 -2
8 -5 10 -4 5 4 -6 9 4 12 36 11 56 -1 78 2 78 10 0 7 2 7 55 14 17 3 30 5 30
6 0 1 18 4 39 6 21 1 44 8 50 14 13 13 29 13 20 -1 -4 -7 1 -7 16 1 12 6 31
10 41 7 11 -3 19 0 19 7 0 6 15 19 34 27 27 12 33 13 29 2 -3 -7 0 -13 6 -13
6 0 11 4 11 10 0 14 37 31 54 24 9 -3 13 -10 10 -15 -3 -5 -10 -7 -15 -4 -5 3
-6 0 -4 -8 6 -13 -18 -69 -26 -64 -2 1 -1 -2 3 -7 5 -6 8 -15 8 -20 0 -6 -4
-5 -9 2 -6 10 -12 7 -24 -12 -27 -40 -91 -100 -151 -140 -98 -65 -121 -67
-618 -64 l-443 3 -59 26 c-76 34 -164 109 -214 184 -46 69 -82 138 -81 157 0
7 4 4 8 -7 8 -19 8 -19 15 3 10 30 20 28 14 -3z m1612 -5 c0 -5 -5 -10 -11
-10 -5 0 -7 5 -4 10 3 6 8 10 11 10 2 0 4 -4 4 -10z"/>
</g>
</svg>
